<mxfile host="Electron" modified="2024-05-14T06:51:20.540Z" agent="Mozilla/5.0 (Windows NT 10.0; Win64; x64) AppleWebKit/537.36 (KHTML, like Gecko) draw.io/24.4.0 Chrome/120.0.6099.109 Electron/28.1.0 Safari/537.36" etag="eiUMY0aqmjev988glxcN" version="24.4.0" type="device" pages="2">
  <diagram id="j-ju7OnMXsz2UyxDaHNA" name="Klassendiagram">
    <mxGraphModel dx="1562" dy="916" grid="1" gridSize="10" guides="1" tooltips="1" connect="1" arrows="1" fold="1" page="1" pageScale="1" pageWidth="827" pageHeight="1169" math="0" shadow="0">
      <root>
        <mxCell id="0" />
        <mxCell id="1" parent="0" />
        <mxCell id="R9XasYlwKOsbxFos4bsw-39" value="dyn" style="shape=folder;fontStyle=1;spacingTop=10;tabWidth=40;tabHeight=14;tabPosition=left;html=1;" parent="1" vertex="1">
          <mxGeometry x="260" y="500" width="700" height="290" as="geometry" />
        </mxCell>
        <mxCell id="R9XasYlwKOsbxFos4bsw-34" value="dbo" style="shape=folder;fontStyle=1;spacingTop=10;tabWidth=40;tabHeight=14;tabPosition=left;html=1;" parent="1" vertex="1">
          <mxGeometry x="1000" y="680" width="320" height="160" as="geometry" />
        </mxCell>
        <mxCell id="R9XasYlwKOsbxFos4bsw-17" value="package" style="shape=folder;fontStyle=1;spacingTop=10;tabWidth=40;tabHeight=14;tabPosition=left;html=1;" parent="1" vertex="1">
          <mxGeometry x="10" y="10" width="1190" height="450" as="geometry" />
        </mxCell>
        <mxCell id="R9XasYlwKOsbxFos4bsw-1" value="CollectionResource" style="swimlane;fontStyle=1;align=center;verticalAlign=top;childLayout=stackLayout;horizontal=1;startSize=26;horizontalStack=0;resizeParent=1;resizeParentMax=0;resizeLast=0;collapsible=1;marginBottom=0;" parent="1" vertex="1">
          <mxGeometry x="40" y="40" width="490" height="134" as="geometry" />
        </mxCell>
        <mxCell id="R9XasYlwKOsbxFos4bsw-3" value="" style="line;strokeWidth=1;fillColor=none;align=left;verticalAlign=middle;spacingTop=-1;spacingLeft=3;spacingRight=3;rotatable=0;labelPosition=right;points=[];portConstraint=eastwest;" parent="R9XasYlwKOsbxFos4bsw-1" vertex="1">
          <mxGeometry y="26" width="490" height="8" as="geometry" />
        </mxCell>
        <mxCell id="R9XasYlwKOsbxFos4bsw-4" value="+ CollectionResource(): CollectionResource&#xa;+ create(name: String, storage: String, collectionDef: DataCollection): Response&#xa;+ get(collection: String, storage: String): Response&#xa;+ addAttributes(collection: String, storage: String, attributes: List&lt;Attribute&gt;): Response&#xa;+ changeAttribute(collection: String, storage: String, attributes: List&lt;Attribute&gt;): Response&#xa;+ delete(name: String, storage: String): Response&#xa;" style="text;strokeColor=none;fillColor=none;align=left;verticalAlign=top;spacingLeft=4;spacingRight=4;overflow=hidden;rotatable=0;points=[[0,0.5],[1,0.5]];portConstraint=eastwest;" parent="R9XasYlwKOsbxFos4bsw-1" vertex="1">
          <mxGeometry y="34" width="490" height="100" as="geometry" />
        </mxCell>
        <mxCell id="R9XasYlwKOsbxFos4bsw-5" value="StorageResource" style="swimlane;fontStyle=1;align=center;verticalAlign=top;childLayout=stackLayout;horizontal=1;startSize=26;horizontalStack=0;resizeParent=1;resizeParentMax=0;resizeLast=0;collapsible=1;marginBottom=0;" parent="1" vertex="1">
          <mxGeometry x="570" y="40" width="490" height="120" as="geometry" />
        </mxCell>
        <mxCell id="R9XasYlwKOsbxFos4bsw-7" value="" style="line;strokeWidth=1;fillColor=none;align=left;verticalAlign=middle;spacingTop=-1;spacingLeft=3;spacingRight=3;rotatable=0;labelPosition=right;points=[];portConstraint=eastwest;" parent="R9XasYlwKOsbxFos4bsw-5" vertex="1">
          <mxGeometry y="26" width="490" height="8" as="geometry" />
        </mxCell>
        <mxCell id="R9XasYlwKOsbxFos4bsw-8" value="+ StorageResource(): StorageResource&#xa;+ create(name: String): Response&#xa;+ getAbilities(name: String): Response&#xa;+ getCollections(name: String): Response&#xa;+ delete(name: String): Response" style="text;strokeColor=none;fillColor=none;align=left;verticalAlign=top;spacingLeft=4;spacingRight=4;overflow=hidden;rotatable=0;points=[[0,0.5],[1,0.5]];portConstraint=eastwest;" parent="R9XasYlwKOsbxFos4bsw-5" vertex="1">
          <mxGeometry y="34" width="490" height="86" as="geometry" />
        </mxCell>
        <mxCell id="R9XasYlwKOsbxFos4bsw-9" value="RecordsResource" style="swimlane;fontStyle=1;align=center;verticalAlign=top;childLayout=stackLayout;horizontal=1;startSize=26;horizontalStack=0;resizeParent=1;resizeParentMax=0;resizeLast=0;collapsible=1;marginBottom=0;" parent="1" vertex="1">
          <mxGeometry x="40" y="290" width="1050" height="150" as="geometry" />
        </mxCell>
        <mxCell id="R9XasYlwKOsbxFos4bsw-11" value="" style="line;strokeWidth=1;fillColor=none;align=left;verticalAlign=middle;spacingTop=-1;spacingLeft=3;spacingRight=3;rotatable=0;labelPosition=right;points=[];portConstraint=eastwest;" parent="R9XasYlwKOsbxFos4bsw-9" vertex="1">
          <mxGeometry y="26" width="1050" height="8" as="geometry" />
        </mxCell>
        <mxCell id="R9XasYlwKOsbxFos4bsw-12" value="+ RecordsResource(): RecordsResource&#xa;+ create(collection: String, storage: String, json: String): Response&#xa;+ get(collection: String, id: Long, storage: String, includes: String, geojsonattr: String, geotransform: String, deflat: boolean): Response&#xa;+ list(collection: String, storage: String, includes: String, filter: String, size: int, page: String, order: String, countonly: boolean, unique: boolean, geojsonattr: String, geotransform: String): Response&#xa;+ update(collection: String, id: Long, storage: String, json: String): Response&#xa;+ update(collection: String, storage: String, json: String): Response&#xa;+ delete(collection: String, id: Long, storage: String, json: String): Response" style="text;strokeColor=none;fillColor=none;align=left;verticalAlign=top;spacingLeft=4;spacingRight=4;overflow=hidden;rotatable=0;points=[[0,0.5],[1,0.5]];portConstraint=eastwest;" parent="R9XasYlwKOsbxFos4bsw-9" vertex="1">
          <mxGeometry y="34" width="1050" height="116" as="geometry" />
        </mxCell>
        <mxCell id="R9XasYlwKOsbxFos4bsw-13" value="SystemResource" style="swimlane;fontStyle=1;align=center;verticalAlign=top;childLayout=stackLayout;horizontal=1;startSize=26;horizontalStack=0;resizeParent=1;resizeParentMax=0;resizeLast=0;collapsible=1;marginBottom=0;" parent="1" vertex="1">
          <mxGeometry x="930" y="180" width="160" height="90" as="geometry" />
        </mxCell>
        <mxCell id="R9XasYlwKOsbxFos4bsw-15" value="" style="line;strokeWidth=1;fillColor=none;align=left;verticalAlign=middle;spacingTop=-1;spacingLeft=3;spacingRight=3;rotatable=0;labelPosition=right;points=[];portConstraint=eastwest;" parent="R9XasYlwKOsbxFos4bsw-13" vertex="1">
          <mxGeometry y="26" width="160" height="8" as="geometry" />
        </mxCell>
        <mxCell id="R9XasYlwKOsbxFos4bsw-16" value="+ SystemResource(): SystemResource&#xa;+ getConfig: Response&#xa;+ getSysinfo(): Response&#xa;" style="text;strokeColor=none;fillColor=none;align=left;verticalAlign=top;spacingLeft=4;spacingRight=4;overflow=hidden;rotatable=0;points=[[0,0.5],[1,0.5]];portConstraint=eastwest;" parent="R9XasYlwKOsbxFos4bsw-13" vertex="1">
          <mxGeometry y="34" width="160" height="56" as="geometry" />
        </mxCell>
        <mxCell id="R9XasYlwKOsbxFos4bsw-18" value="Configuration" style="swimlane;fontStyle=1;align=center;verticalAlign=top;childLayout=stackLayout;horizontal=1;startSize=26;horizontalStack=0;resizeParent=1;resizeParentMax=0;resizeLast=0;collapsible=1;marginBottom=0;" parent="1" vertex="1">
          <mxGeometry x="1030" y="520" width="160" height="34" as="geometry" />
        </mxCell>
        <mxCell id="R9XasYlwKOsbxFos4bsw-20" value="" style="line;strokeWidth=1;fillColor=none;align=left;verticalAlign=middle;spacingTop=-1;spacingLeft=3;spacingRight=3;rotatable=0;labelPosition=right;points=[];portConstraint=eastwest;" parent="R9XasYlwKOsbxFos4bsw-18" vertex="1">
          <mxGeometry y="26" width="160" height="8" as="geometry" />
        </mxCell>
        <mxCell id="R9XasYlwKOsbxFos4bsw-22" value="DataConverter" style="swimlane;fontStyle=1;align=center;verticalAlign=top;childLayout=stackLayout;horizontal=1;startSize=26;horizontalStack=0;resizeParent=1;resizeParentMax=0;resizeLast=0;collapsible=1;marginBottom=0;" parent="1" vertex="1">
          <mxGeometry x="1030" y="610" width="160" height="34" as="geometry" />
        </mxCell>
        <mxCell id="R9XasYlwKOsbxFos4bsw-24" value="" style="line;strokeWidth=1;fillColor=none;align=left;verticalAlign=middle;spacingTop=-1;spacingLeft=3;spacingRight=3;rotatable=0;labelPosition=right;points=[];portConstraint=eastwest;" parent="R9XasYlwKOsbxFos4bsw-22" vertex="1">
          <mxGeometry y="26" width="160" height="8" as="geometry" />
        </mxCell>
        <mxCell id="R9XasYlwKOsbxFos4bsw-26" value="Attribute" style="swimlane;fontStyle=1;align=center;verticalAlign=top;childLayout=stackLayout;horizontal=1;startSize=26;horizontalStack=0;resizeParent=1;resizeParentMax=0;resizeLast=0;collapsible=1;marginBottom=0;" parent="1" vertex="1">
          <mxGeometry x="1010" y="708" width="160" height="34" as="geometry" />
        </mxCell>
        <mxCell id="R9XasYlwKOsbxFos4bsw-28" value="" style="line;strokeWidth=1;fillColor=none;align=left;verticalAlign=middle;spacingTop=-1;spacingLeft=3;spacingRight=3;rotatable=0;labelPosition=right;points=[];portConstraint=eastwest;" parent="R9XasYlwKOsbxFos4bsw-26" vertex="1">
          <mxGeometry y="26" width="160" height="8" as="geometry" />
        </mxCell>
        <mxCell id="R9XasYlwKOsbxFos4bsw-30" value="DataCollection" style="swimlane;fontStyle=1;align=center;verticalAlign=top;childLayout=stackLayout;horizontal=1;startSize=26;horizontalStack=0;resizeParent=1;resizeParentMax=0;resizeLast=0;collapsible=1;marginBottom=0;" parent="1" vertex="1">
          <mxGeometry x="1010" y="790" width="160" height="34" as="geometry" />
        </mxCell>
        <mxCell id="R9XasYlwKOsbxFos4bsw-32" value="" style="line;strokeWidth=1;fillColor=none;align=left;verticalAlign=middle;spacingTop=-1;spacingLeft=3;spacingRight=3;rotatable=0;labelPosition=right;points=[];portConstraint=eastwest;" parent="R9XasYlwKOsbxFos4bsw-30" vertex="1">
          <mxGeometry y="26" width="160" height="8" as="geometry" />
        </mxCell>
        <mxCell id="R9XasYlwKOsbxFos4bsw-35" value="&lt;&lt;interface&gt;&gt;&#xa;Dyn" style="swimlane;fontStyle=3;align=center;verticalAlign=top;childLayout=stackLayout;horizontal=1;startSize=40;horizontalStack=0;resizeParent=1;resizeParentMax=0;resizeLast=0;collapsible=1;marginBottom=0;" parent="1" vertex="1">
          <mxGeometry x="525" y="530" width="180" height="90" as="geometry" />
        </mxCell>
        <mxCell id="R9XasYlwKOsbxFos4bsw-37" value="" style="line;strokeWidth=1;fillColor=none;align=left;verticalAlign=middle;spacingTop=-1;spacingLeft=3;spacingRight=3;rotatable=0;labelPosition=right;points=[];portConstraint=eastwest;" parent="R9XasYlwKOsbxFos4bsw-35" vertex="1">
          <mxGeometry y="40" width="180" height="8" as="geometry" />
        </mxCell>
        <mxCell id="R9XasYlwKOsbxFos4bsw-38" value="+ connect(): void&#xa;+ getWarnings(): List&lt;String&gt;" style="text;strokeColor=none;fillColor=none;align=left;verticalAlign=top;spacingLeft=4;spacingRight=4;overflow=hidden;rotatable=0;points=[[0,0.5],[1,0.5]];portConstraint=eastwest;" parent="R9XasYlwKOsbxFos4bsw-35" vertex="1">
          <mxGeometry y="48" width="180" height="42" as="geometry" />
        </mxCell>
        <mxCell id="R9XasYlwKOsbxFos4bsw-40" value="DynMongo" style="swimlane;fontStyle=1;align=center;verticalAlign=top;childLayout=stackLayout;horizontal=1;startSize=26;horizontalStack=0;resizeParent=1;resizeParentMax=0;resizeLast=0;collapsible=1;marginBottom=0;" parent="1" vertex="1">
          <mxGeometry x="300" y="670" width="160" height="34" as="geometry" />
        </mxCell>
        <mxCell id="R9XasYlwKOsbxFos4bsw-42" value="" style="line;strokeWidth=1;fillColor=none;align=left;verticalAlign=middle;spacingTop=-1;spacingLeft=3;spacingRight=3;rotatable=0;labelPosition=right;points=[];portConstraint=eastwest;" parent="R9XasYlwKOsbxFos4bsw-40" vertex="1">
          <mxGeometry y="26" width="160" height="8" as="geometry" />
        </mxCell>
        <mxCell id="R9XasYlwKOsbxFos4bsw-44" value="DynPostgres" style="swimlane;fontStyle=1;align=center;verticalAlign=top;childLayout=stackLayout;horizontal=1;startSize=26;horizontalStack=0;resizeParent=1;resizeParentMax=0;resizeLast=0;collapsible=1;marginBottom=0;" parent="1" vertex="1">
          <mxGeometry x="735" y="670" width="160" height="34" as="geometry" />
        </mxCell>
        <mxCell id="R9XasYlwKOsbxFos4bsw-46" value="" style="line;strokeWidth=1;fillColor=none;align=left;verticalAlign=middle;spacingTop=-1;spacingLeft=3;spacingRight=3;rotatable=0;labelPosition=right;points=[];portConstraint=eastwest;" parent="R9XasYlwKOsbxFos4bsw-44" vertex="1">
          <mxGeometry y="26" width="160" height="8" as="geometry" />
        </mxCell>
        <mxCell id="R9XasYlwKOsbxFos4bsw-48" value="dyncollection" style="shape=folder;fontStyle=1;spacingTop=10;tabWidth=40;tabHeight=14;tabPosition=left;html=1;" parent="1" vertex="1">
          <mxGeometry x="360" y="1140" width="520" height="170" as="geometry" />
        </mxCell>
        <mxCell id="R9XasYlwKOsbxFos4bsw-49" value="&lt;&lt;interface&gt;&gt;&#xa;DynCollection" style="swimlane;fontStyle=3;align=center;verticalAlign=top;childLayout=stackLayout;horizontal=1;startSize=40;horizontalStack=0;resizeParent=1;resizeParentMax=0;resizeLast=0;collapsible=1;marginBottom=0;" parent="1" vertex="1">
          <mxGeometry x="535" y="1160" width="160" height="48" as="geometry" />
        </mxCell>
        <mxCell id="R9XasYlwKOsbxFos4bsw-51" value="" style="line;strokeWidth=1;fillColor=none;align=left;verticalAlign=middle;spacingTop=-1;spacingLeft=3;spacingRight=3;rotatable=0;labelPosition=right;points=[];portConstraint=eastwest;" parent="R9XasYlwKOsbxFos4bsw-49" vertex="1">
          <mxGeometry y="40" width="160" height="8" as="geometry" />
        </mxCell>
        <mxCell id="R9XasYlwKOsbxFos4bsw-53" value="DynCollectionMongo" style="swimlane;fontStyle=1;align=center;verticalAlign=top;childLayout=stackLayout;horizontal=1;startSize=26;horizontalStack=0;resizeParent=1;resizeParentMax=0;resizeLast=0;collapsible=1;marginBottom=0;" parent="1" vertex="1">
          <mxGeometry x="390" y="1260" width="160" height="34" as="geometry" />
        </mxCell>
        <mxCell id="R9XasYlwKOsbxFos4bsw-55" value="" style="line;strokeWidth=1;fillColor=none;align=left;verticalAlign=middle;spacingTop=-1;spacingLeft=3;spacingRight=3;rotatable=0;labelPosition=right;points=[];portConstraint=eastwest;" parent="R9XasYlwKOsbxFos4bsw-53" vertex="1">
          <mxGeometry y="26" width="160" height="8" as="geometry" />
        </mxCell>
        <mxCell id="R9XasYlwKOsbxFos4bsw-57" value="DynCollectionPostgres" style="swimlane;fontStyle=1;align=center;verticalAlign=top;childLayout=stackLayout;horizontal=1;startSize=26;horizontalStack=0;resizeParent=1;resizeParentMax=0;resizeLast=0;collapsible=1;marginBottom=0;" parent="1" vertex="1">
          <mxGeometry x="695" y="1260" width="160" height="34" as="geometry" />
        </mxCell>
        <mxCell id="R9XasYlwKOsbxFos4bsw-59" value="" style="line;strokeWidth=1;fillColor=none;align=left;verticalAlign=middle;spacingTop=-1;spacingLeft=3;spacingRight=3;rotatable=0;labelPosition=right;points=[];portConstraint=eastwest;" parent="R9XasYlwKOsbxFos4bsw-57" vertex="1">
          <mxGeometry y="26" width="160" height="8" as="geometry" />
        </mxCell>
        <mxCell id="R9XasYlwKOsbxFos4bsw-61" value="dynrecords" style="shape=folder;fontStyle=1;spacingTop=10;tabWidth=40;tabHeight=14;tabPosition=left;html=1;" parent="1" vertex="1">
          <mxGeometry x="325" y="1360" width="585" height="240" as="geometry" />
        </mxCell>
        <mxCell id="R9XasYlwKOsbxFos4bsw-62" value="&lt;&lt;interface&gt;&gt;&#xa;DynRecords" style="swimlane;fontStyle=3;align=center;verticalAlign=top;childLayout=stackLayout;horizontal=1;startSize=40;horizontalStack=0;resizeParent=1;resizeParentMax=0;resizeLast=0;collapsible=1;marginBottom=0;" parent="1" vertex="1">
          <mxGeometry x="540" y="1396" width="160" height="48" as="geometry" />
        </mxCell>
        <mxCell id="R9XasYlwKOsbxFos4bsw-64" value="" style="line;strokeWidth=1;fillColor=none;align=left;verticalAlign=middle;spacingTop=-1;spacingLeft=3;spacingRight=3;rotatable=0;labelPosition=right;points=[];portConstraint=eastwest;" parent="R9XasYlwKOsbxFos4bsw-62" vertex="1">
          <mxGeometry y="40" width="160" height="8" as="geometry" />
        </mxCell>
        <mxCell id="R9XasYlwKOsbxFos4bsw-66" value="DynRecordsMongo" style="swimlane;fontStyle=1;align=center;verticalAlign=top;childLayout=stackLayout;horizontal=1;startSize=26;horizontalStack=0;resizeParent=1;resizeParentMax=0;resizeLast=0;collapsible=1;marginBottom=0;" parent="1" vertex="1">
          <mxGeometry x="375" y="1486" width="160" height="34" as="geometry" />
        </mxCell>
        <mxCell id="R9XasYlwKOsbxFos4bsw-68" value="" style="line;strokeWidth=1;fillColor=none;align=left;verticalAlign=middle;spacingTop=-1;spacingLeft=3;spacingRight=3;rotatable=0;labelPosition=right;points=[];portConstraint=eastwest;" parent="R9XasYlwKOsbxFos4bsw-66" vertex="1">
          <mxGeometry y="26" width="160" height="8" as="geometry" />
        </mxCell>
        <mxCell id="R9XasYlwKOsbxFos4bsw-70" value="DynRecordsPostgres" style="swimlane;fontStyle=1;align=center;verticalAlign=top;childLayout=stackLayout;horizontal=1;startSize=26;horizontalStack=0;resizeParent=1;resizeParentMax=0;resizeLast=0;collapsible=1;marginBottom=0;" parent="1" vertex="1">
          <mxGeometry x="705" y="1486" width="160" height="34" as="geometry" />
        </mxCell>
        <mxCell id="R9XasYlwKOsbxFos4bsw-72" value="" style="line;strokeWidth=1;fillColor=none;align=left;verticalAlign=middle;spacingTop=-1;spacingLeft=3;spacingRight=3;rotatable=0;labelPosition=right;points=[];portConstraint=eastwest;" parent="R9XasYlwKOsbxFos4bsw-70" vertex="1">
          <mxGeometry y="26" width="160" height="8" as="geometry" />
        </mxCell>
        <mxCell id="R9XasYlwKOsbxFos4bsw-74" value="dynstorage" style="shape=folder;fontStyle=1;spacingTop=10;tabWidth=40;tabHeight=14;tabPosition=left;html=1;" parent="1" vertex="1">
          <mxGeometry x="360" y="840" width="520" height="190" as="geometry" />
        </mxCell>
        <mxCell id="R9XasYlwKOsbxFos4bsw-75" value="&lt;&lt;interface&gt;&gt;&#xa;DynStorage" style="swimlane;fontStyle=1;align=center;verticalAlign=top;childLayout=stackLayout;horizontal=1;startSize=40;horizontalStack=0;resizeParent=1;resizeParentMax=0;resizeLast=0;collapsible=1;marginBottom=0;" parent="1" vertex="1">
          <mxGeometry x="535" y="870" width="160" height="48" as="geometry" />
        </mxCell>
        <mxCell id="R9XasYlwKOsbxFos4bsw-77" value="" style="line;strokeWidth=1;fillColor=none;align=left;verticalAlign=middle;spacingTop=-1;spacingLeft=3;spacingRight=3;rotatable=0;labelPosition=right;points=[];portConstraint=eastwest;" parent="R9XasYlwKOsbxFos4bsw-75" vertex="1">
          <mxGeometry y="40" width="160" height="8" as="geometry" />
        </mxCell>
        <mxCell id="R9XasYlwKOsbxFos4bsw-79" value="DynStorageMongo" style="swimlane;fontStyle=1;align=center;verticalAlign=top;childLayout=stackLayout;horizontal=1;startSize=26;horizontalStack=0;resizeParent=1;resizeParentMax=0;resizeLast=0;collapsible=1;marginBottom=0;" parent="1" vertex="1">
          <mxGeometry x="375" y="960" width="160" height="34" as="geometry" />
        </mxCell>
        <mxCell id="R9XasYlwKOsbxFos4bsw-81" value="" style="line;strokeWidth=1;fillColor=none;align=left;verticalAlign=middle;spacingTop=-1;spacingLeft=3;spacingRight=3;rotatable=0;labelPosition=right;points=[];portConstraint=eastwest;" parent="R9XasYlwKOsbxFos4bsw-79" vertex="1">
          <mxGeometry y="26" width="160" height="8" as="geometry" />
        </mxCell>
        <mxCell id="R9XasYlwKOsbxFos4bsw-83" value="DynStoragePostgres" style="swimlane;fontStyle=1;align=center;verticalAlign=top;childLayout=stackLayout;horizontal=1;startSize=26;horizontalStack=0;resizeParent=1;resizeParentMax=0;resizeLast=0;collapsible=1;marginBottom=0;" parent="1" vertex="1">
          <mxGeometry x="705" y="960" width="160" height="34" as="geometry" />
        </mxCell>
        <mxCell id="R9XasYlwKOsbxFos4bsw-85" value="" style="line;strokeWidth=1;fillColor=none;align=left;verticalAlign=middle;spacingTop=-1;spacingLeft=3;spacingRight=3;rotatable=0;labelPosition=right;points=[];portConstraint=eastwest;" parent="R9XasYlwKOsbxFos4bsw-83" vertex="1">
          <mxGeometry y="26" width="160" height="8" as="geometry" />
        </mxCell>
        <mxCell id="R9XasYlwKOsbxFos4bsw-87" value="filter" style="shape=folder;fontStyle=1;spacingTop=10;tabWidth=40;tabHeight=14;tabPosition=left;html=1;" parent="1" vertex="1">
          <mxGeometry x="352.5" y="1546" width="535" height="514" as="geometry" />
        </mxCell>
        <mxCell id="R9XasYlwKOsbxFos4bsw-88" value="Extends" style="endArrow=block;endSize=16;endFill=0;html=1;entryX=0.026;entryY=1.058;entryDx=0;entryDy=0;entryPerimeter=0;exitX=0.5;exitY=0;exitDx=0;exitDy=0;" parent="1" source="R9XasYlwKOsbxFos4bsw-49" target="R9XasYlwKOsbxFos4bsw-38" edge="1">
          <mxGeometry x="-0.6647" width="160" relative="1" as="geometry">
            <mxPoint x="560" y="830" as="sourcePoint" />
            <mxPoint x="720" y="830" as="targetPoint" />
            <Array as="points">
              <mxPoint x="600" y="1070" />
            </Array>
            <mxPoint as="offset" />
          </mxGeometry>
        </mxCell>
        <mxCell id="R9XasYlwKOsbxFos4bsw-90" value="Extends" style="endArrow=block;endSize=16;endFill=0;html=1;entryX=0.942;entryY=1.037;entryDx=0;entryDy=0;entryPerimeter=0;exitX=0.5;exitY=0;exitDx=0;exitDy=0;" parent="1" source="R9XasYlwKOsbxFos4bsw-62" target="R9XasYlwKOsbxFos4bsw-38" edge="1">
          <mxGeometry x="-0.184" width="160" relative="1" as="geometry">
            <mxPoint x="560" y="830" as="sourcePoint" />
            <mxPoint x="720" y="830" as="targetPoint" />
            <mxPoint as="offset" />
          </mxGeometry>
        </mxCell>
        <mxCell id="R9XasYlwKOsbxFos4bsw-91" value="Extends" style="endArrow=block;endSize=16;endFill=0;html=1;exitX=0.5;exitY=0;exitDx=0;exitDy=0;entryX=0.488;entryY=1.101;entryDx=0;entryDy=0;entryPerimeter=0;" parent="1" source="R9XasYlwKOsbxFos4bsw-75" target="R9XasYlwKOsbxFos4bsw-38" edge="1">
          <mxGeometry width="160" relative="1" as="geometry">
            <mxPoint x="560" y="830" as="sourcePoint" />
            <mxPoint x="605" y="624" as="targetPoint" />
          </mxGeometry>
        </mxCell>
        <mxCell id="R9XasYlwKOsbxFos4bsw-92" value="" style="endArrow=block;dashed=1;endFill=0;endSize=12;html=1;entryX=0;entryY=0.5;entryDx=0;entryDy=0;exitX=0.5;exitY=0;exitDx=0;exitDy=0;" parent="1" source="R9XasYlwKOsbxFos4bsw-40" target="R9XasYlwKOsbxFos4bsw-38" edge="1">
          <mxGeometry width="160" relative="1" as="geometry">
            <mxPoint x="560" y="830" as="sourcePoint" />
            <mxPoint x="720" y="830" as="targetPoint" />
          </mxGeometry>
        </mxCell>
        <mxCell id="R9XasYlwKOsbxFos4bsw-93" value="" style="endArrow=block;dashed=1;endFill=0;endSize=12;html=1;entryX=1;entryY=0.5;entryDx=0;entryDy=0;exitX=0.5;exitY=0;exitDx=0;exitDy=0;" parent="1" source="R9XasYlwKOsbxFos4bsw-44" target="R9XasYlwKOsbxFos4bsw-38" edge="1">
          <mxGeometry width="160" relative="1" as="geometry">
            <mxPoint x="560" y="830" as="sourcePoint" />
            <mxPoint x="720" y="830" as="targetPoint" />
          </mxGeometry>
        </mxCell>
        <mxCell id="R9XasYlwKOsbxFos4bsw-94" value="Extends" style="endArrow=block;endSize=16;endFill=0;html=1;entryX=0.25;entryY=1;entryDx=0;entryDy=0;exitX=0;exitY=0.25;exitDx=0;exitDy=0;" parent="1" source="R9XasYlwKOsbxFos4bsw-66" target="R9XasYlwKOsbxFos4bsw-40" edge="1">
          <mxGeometry width="160" relative="1" as="geometry">
            <mxPoint x="560" y="930" as="sourcePoint" />
            <mxPoint x="428.79999999999995" y="757.1179999999999" as="targetPoint" />
            <Array as="points">
              <mxPoint x="280" y="1495" />
              <mxPoint x="280" y="840" />
            </Array>
          </mxGeometry>
        </mxCell>
        <mxCell id="R9XasYlwKOsbxFos4bsw-95" value="" style="endArrow=block;dashed=1;endFill=0;endSize=12;html=1;entryX=0.25;entryY=1;entryDx=0;entryDy=0;exitX=0.75;exitY=0;exitDx=0;exitDy=0;" parent="1" source="R9XasYlwKOsbxFos4bsw-66" target="R9XasYlwKOsbxFos4bsw-62" edge="1">
          <mxGeometry width="160" relative="1" as="geometry">
            <mxPoint x="250" y="1340" as="sourcePoint" />
            <mxPoint x="582.72" y="1474.676" as="targetPoint" />
          </mxGeometry>
        </mxCell>
        <mxCell id="R9XasYlwKOsbxFos4bsw-96" value="" style="endArrow=block;dashed=1;endFill=0;endSize=12;html=1;exitX=0.25;exitY=0;exitDx=0;exitDy=0;entryX=0.75;entryY=1;entryDx=0;entryDy=0;" parent="1" source="R9XasYlwKOsbxFos4bsw-70" target="R9XasYlwKOsbxFos4bsw-62" edge="1">
          <mxGeometry width="160" relative="1" as="geometry">
            <mxPoint x="250" y="1340" as="sourcePoint" />
            <mxPoint x="619.2" y="1477.77" as="targetPoint" />
          </mxGeometry>
        </mxCell>
        <mxCell id="R9XasYlwKOsbxFos4bsw-97" value="Extends" style="endArrow=block;endSize=16;endFill=0;html=1;entryX=0.75;entryY=1;entryDx=0;entryDy=0;exitX=1;exitY=0.25;exitDx=0;exitDy=0;" parent="1" source="R9XasYlwKOsbxFos4bsw-70" target="R9XasYlwKOsbxFos4bsw-44" edge="1">
          <mxGeometry width="160" relative="1" as="geometry">
            <mxPoint x="560" y="930" as="sourcePoint" />
            <mxPoint x="818.04" y="758.444" as="targetPoint" />
            <Array as="points">
              <mxPoint x="960" y="1495" />
              <mxPoint x="960" y="840" />
            </Array>
          </mxGeometry>
        </mxCell>
        <mxCell id="R9XasYlwKOsbxFos4bsw-99" value="Extends" style="endArrow=block;endSize=16;endFill=0;html=1;entryX=0.5;entryY=1;entryDx=0;entryDy=0;exitX=1;exitY=0.25;exitDx=0;exitDy=0;" parent="1" source="R9XasYlwKOsbxFos4bsw-57" target="R9XasYlwKOsbxFos4bsw-44" edge="1">
          <mxGeometry width="160" relative="1" as="geometry">
            <mxPoint x="560" y="1030" as="sourcePoint" />
            <mxPoint x="779.96" y="760.0039999999999" as="targetPoint" />
            <Array as="points">
              <mxPoint x="920" y="1269" />
              <mxPoint x="920" y="840" />
            </Array>
          </mxGeometry>
        </mxCell>
        <mxCell id="R9XasYlwKOsbxFos4bsw-100" value="Extends" style="endArrow=block;endSize=16;endFill=0;html=1;entryX=0.5;entryY=1;entryDx=0;entryDy=0;exitX=0;exitY=0.25;exitDx=0;exitDy=0;" parent="1" source="R9XasYlwKOsbxFos4bsw-53" target="R9XasYlwKOsbxFos4bsw-40" edge="1">
          <mxGeometry width="160" relative="1" as="geometry">
            <mxPoint x="560" y="1030" as="sourcePoint" />
            <mxPoint x="356.79999999999995" y="757.56" as="targetPoint" />
            <Array as="points">
              <mxPoint x="320" y="1269" />
              <mxPoint x="320" y="840" />
            </Array>
          </mxGeometry>
        </mxCell>
        <mxCell id="R9XasYlwKOsbxFos4bsw-101" value="Extends" style="endArrow=block;endSize=16;endFill=0;html=1;entryX=0.25;entryY=1;entryDx=0;entryDy=0;exitX=0.75;exitY=0;exitDx=0;exitDy=0;" parent="1" source="R9XasYlwKOsbxFos4bsw-83" target="R9XasYlwKOsbxFos4bsw-44" edge="1">
          <mxGeometry width="160" relative="1" as="geometry">
            <mxPoint x="560" y="1030" as="sourcePoint" />
            <mxPoint x="862.52" y="757.1179999999999" as="targetPoint" />
          </mxGeometry>
        </mxCell>
        <mxCell id="R9XasYlwKOsbxFos4bsw-102" value="Extends" style="endArrow=block;endSize=16;endFill=0;html=1;exitX=0.25;exitY=0;exitDx=0;exitDy=0;entryX=0.75;entryY=1;entryDx=0;entryDy=0;" parent="1" source="R9XasYlwKOsbxFos4bsw-79" target="R9XasYlwKOsbxFos4bsw-40" edge="1">
          <mxGeometry width="160" relative="1" as="geometry">
            <mxPoint x="560" y="1280" as="sourcePoint" />
            <mxPoint x="318.55999999999995" y="754.44" as="targetPoint" />
          </mxGeometry>
        </mxCell>
        <mxCell id="R9XasYlwKOsbxFos4bsw-103" value="" style="endArrow=block;dashed=1;endFill=0;endSize=12;html=1;exitX=0.75;exitY=0;exitDx=0;exitDy=0;entryX=0.25;entryY=1;entryDx=0;entryDy=0;" parent="1" source="R9XasYlwKOsbxFos4bsw-79" target="R9XasYlwKOsbxFos4bsw-75" edge="1">
          <mxGeometry width="160" relative="1" as="geometry">
            <mxPoint x="845" y="780" as="sourcePoint" />
            <mxPoint x="570.2" y="946.21" as="targetPoint" />
          </mxGeometry>
        </mxCell>
        <mxCell id="R9XasYlwKOsbxFos4bsw-104" value="" style="endArrow=block;dashed=1;endFill=0;endSize=12;html=1;exitX=0.25;exitY=0;exitDx=0;exitDy=0;entryX=0.75;entryY=1;entryDx=0;entryDy=0;" parent="1" source="R9XasYlwKOsbxFos4bsw-83" target="R9XasYlwKOsbxFos4bsw-75" edge="1">
          <mxGeometry width="160" relative="1" as="geometry">
            <mxPoint x="845" y="780" as="sourcePoint" />
            <mxPoint x="664.28" y="947.1199999999999" as="targetPoint" />
          </mxGeometry>
        </mxCell>
        <mxCell id="R9XasYlwKOsbxFos4bsw-105" value="" style="endArrow=block;dashed=1;endFill=0;endSize=12;html=1;exitX=0.75;exitY=0;exitDx=0;exitDy=0;entryX=0.25;entryY=1;entryDx=0;entryDy=0;" parent="1" source="R9XasYlwKOsbxFos4bsw-53" target="R9XasYlwKOsbxFos4bsw-49" edge="1">
          <mxGeometry width="160" relative="1" as="geometry">
            <mxPoint x="845" y="1260" as="sourcePoint" />
            <mxPoint x="560.9200000000001" y="1260.884" as="targetPoint" />
          </mxGeometry>
        </mxCell>
        <mxCell id="R9XasYlwKOsbxFos4bsw-106" value="" style="endArrow=block;dashed=1;endFill=0;endSize=12;html=1;exitX=0.25;exitY=0;exitDx=0;exitDy=0;entryX=0.75;entryY=1;entryDx=0;entryDy=0;" parent="1" source="R9XasYlwKOsbxFos4bsw-57" target="R9XasYlwKOsbxFos4bsw-49" edge="1">
          <mxGeometry width="160" relative="1" as="geometry">
            <mxPoint x="845" y="1260" as="sourcePoint" />
            <mxPoint x="672.9200000000001" y="1263.12" as="targetPoint" />
          </mxGeometry>
        </mxCell>
        <mxCell id="R9XasYlwKOsbxFos4bsw-108" value="BetweenFilter" style="swimlane;fontStyle=1;align=center;verticalAlign=top;childLayout=stackLayout;horizontal=1;startSize=26;horizontalStack=0;resizeParent=1;resizeParentMax=0;resizeLast=0;collapsible=1;marginBottom=0;" parent="1" vertex="1">
          <mxGeometry x="710" y="1630" width="160" height="34" as="geometry">
            <mxRectangle x="670" y="1650" width="110" height="26" as="alternateBounds" />
          </mxGeometry>
        </mxCell>
        <mxCell id="R9XasYlwKOsbxFos4bsw-110" value="" style="line;strokeWidth=1;fillColor=none;align=left;verticalAlign=middle;spacingTop=-1;spacingLeft=3;spacingRight=3;rotatable=0;labelPosition=right;points=[];portConstraint=eastwest;" parent="R9XasYlwKOsbxFos4bsw-108" vertex="1">
          <mxGeometry y="26" width="160" height="8" as="geometry" />
        </mxCell>
        <mxCell id="R9XasYlwKOsbxFos4bsw-112" value="BoundingBoxFilter" style="swimlane;fontStyle=1;align=center;verticalAlign=top;childLayout=stackLayout;horizontal=1;startSize=26;horizontalStack=0;resizeParent=1;resizeParentMax=0;resizeLast=0;collapsible=1;marginBottom=0;" parent="1" vertex="1">
          <mxGeometry x="367.5" y="1832" width="160" height="34" as="geometry" />
        </mxCell>
        <mxCell id="R9XasYlwKOsbxFos4bsw-114" value="" style="line;strokeWidth=1;fillColor=none;align=left;verticalAlign=middle;spacingTop=-1;spacingLeft=3;spacingRight=3;rotatable=0;labelPosition=right;points=[];portConstraint=eastwest;" parent="R9XasYlwKOsbxFos4bsw-112" vertex="1">
          <mxGeometry y="26" width="160" height="8" as="geometry" />
        </mxCell>
        <mxCell id="R9XasYlwKOsbxFos4bsw-116" value="ContainFilter" style="swimlane;fontStyle=1;align=center;verticalAlign=top;childLayout=stackLayout;horizontal=1;startSize=26;horizontalStack=0;resizeParent=1;resizeParentMax=0;resizeLast=0;collapsible=1;marginBottom=0;" parent="1" vertex="1">
          <mxGeometry x="367.5" y="1630" width="160" height="34" as="geometry" />
        </mxCell>
        <mxCell id="R9XasYlwKOsbxFos4bsw-118" value="" style="line;strokeWidth=1;fillColor=none;align=left;verticalAlign=middle;spacingTop=-1;spacingLeft=3;spacingRight=3;rotatable=0;labelPosition=right;points=[];portConstraint=eastwest;" parent="R9XasYlwKOsbxFos4bsw-116" vertex="1">
          <mxGeometry y="26" width="160" height="8" as="geometry" />
        </mxCell>
        <mxCell id="R9XasYlwKOsbxFos4bsw-120" value="ContainsGeoFilter" style="swimlane;fontStyle=1;align=center;verticalAlign=top;childLayout=stackLayout;horizontal=1;startSize=26;horizontalStack=0;resizeParent=1;resizeParentMax=0;resizeLast=0;collapsible=1;marginBottom=0;" parent="1" vertex="1">
          <mxGeometry x="540" y="1930" width="160" height="34" as="geometry" />
        </mxCell>
        <mxCell id="R9XasYlwKOsbxFos4bsw-122" value="" style="line;strokeWidth=1;fillColor=none;align=left;verticalAlign=middle;spacingTop=-1;spacingLeft=3;spacingRight=3;rotatable=0;labelPosition=right;points=[];portConstraint=eastwest;" parent="R9XasYlwKOsbxFos4bsw-120" vertex="1">
          <mxGeometry y="26" width="160" height="8" as="geometry" />
        </mxCell>
        <mxCell id="R9XasYlwKOsbxFos4bsw-124" value="CrossesGeoFilter" style="swimlane;fontStyle=1;align=center;verticalAlign=top;childLayout=stackLayout;horizontal=1;startSize=26;horizontalStack=0;resizeParent=1;resizeParentMax=0;resizeLast=0;collapsible=1;marginBottom=0;" parent="1" vertex="1">
          <mxGeometry x="370" y="1974" width="160" height="34" as="geometry" />
        </mxCell>
        <mxCell id="R9XasYlwKOsbxFos4bsw-126" value="" style="line;strokeWidth=1;fillColor=none;align=left;verticalAlign=middle;spacingTop=-1;spacingLeft=3;spacingRight=3;rotatable=0;labelPosition=right;points=[];portConstraint=eastwest;" parent="R9XasYlwKOsbxFos4bsw-124" vertex="1">
          <mxGeometry y="26" width="160" height="8" as="geometry" />
        </mxCell>
        <mxCell id="R9XasYlwKOsbxFos4bsw-128" value="DisjointGeoFilter" style="swimlane;fontStyle=1;align=center;verticalAlign=top;childLayout=stackLayout;horizontal=1;startSize=26;horizontalStack=0;resizeParent=1;resizeParentMax=0;resizeLast=0;collapsible=1;marginBottom=0;" parent="1" vertex="1">
          <mxGeometry x="710" y="1930" width="160" height="34" as="geometry" />
        </mxCell>
        <mxCell id="R9XasYlwKOsbxFos4bsw-130" value="" style="line;strokeWidth=1;fillColor=none;align=left;verticalAlign=middle;spacingTop=-1;spacingLeft=3;spacingRight=3;rotatable=0;labelPosition=right;points=[];portConstraint=eastwest;" parent="R9XasYlwKOsbxFos4bsw-128" vertex="1">
          <mxGeometry y="26" width="160" height="8" as="geometry" />
        </mxCell>
        <mxCell id="R9XasYlwKOsbxFos4bsw-132" value="EndsWithFilter" style="swimlane;fontStyle=1;align=center;verticalAlign=top;childLayout=stackLayout;horizontal=1;startSize=26;horizontalStack=0;resizeParent=1;resizeParentMax=0;resizeLast=0;collapsible=1;marginBottom=0;" parent="1" vertex="1">
          <mxGeometry x="367.5" y="1760" width="160" height="34" as="geometry" />
        </mxCell>
        <mxCell id="R9XasYlwKOsbxFos4bsw-134" value="" style="line;strokeWidth=1;fillColor=none;align=left;verticalAlign=middle;spacingTop=-1;spacingLeft=3;spacingRight=3;rotatable=0;labelPosition=right;points=[];portConstraint=eastwest;" parent="R9XasYlwKOsbxFos4bsw-132" vertex="1">
          <mxGeometry y="26" width="160" height="8" as="geometry" />
        </mxCell>
        <mxCell id="R9XasYlwKOsbxFos4bsw-136" value="EqualsFilter" style="swimlane;fontStyle=1;align=center;verticalAlign=top;childLayout=stackLayout;horizontal=1;startSize=26;horizontalStack=0;resizeParent=1;resizeParentMax=0;resizeLast=0;collapsible=1;marginBottom=0;" parent="1" vertex="1">
          <mxGeometry x="367.5" y="1680" width="160" height="34" as="geometry" />
        </mxCell>
        <mxCell id="R9XasYlwKOsbxFos4bsw-138" value="" style="line;strokeWidth=1;fillColor=none;align=left;verticalAlign=middle;spacingTop=-1;spacingLeft=3;spacingRight=3;rotatable=0;labelPosition=right;points=[];portConstraint=eastwest;" parent="R9XasYlwKOsbxFos4bsw-136" vertex="1">
          <mxGeometry y="26" width="160" height="8" as="geometry" />
        </mxCell>
        <mxCell id="R9XasYlwKOsbxFos4bsw-140" value="EqualsGeoFilter" style="swimlane;fontStyle=1;align=center;verticalAlign=top;childLayout=stackLayout;horizontal=1;startSize=26;horizontalStack=0;resizeParent=1;resizeParentMax=0;resizeLast=0;collapsible=1;marginBottom=0;" parent="1" vertex="1">
          <mxGeometry x="537.5" y="2020" width="160" height="34" as="geometry" />
        </mxCell>
        <mxCell id="R9XasYlwKOsbxFos4bsw-142" value="" style="line;strokeWidth=1;fillColor=none;align=left;verticalAlign=middle;spacingTop=-1;spacingLeft=3;spacingRight=3;rotatable=0;labelPosition=right;points=[];portConstraint=eastwest;" parent="R9XasYlwKOsbxFos4bsw-140" vertex="1">
          <mxGeometry y="26" width="160" height="8" as="geometry" />
        </mxCell>
        <mxCell id="R9XasYlwKOsbxFos4bsw-144" value="FilterParser" style="swimlane;fontStyle=1;align=center;verticalAlign=top;childLayout=stackLayout;horizontal=1;startSize=26;horizontalStack=0;resizeParent=1;resizeParentMax=0;resizeLast=0;collapsible=1;marginBottom=0;" parent="1" vertex="1">
          <mxGeometry x="365" y="1575" width="160" height="34" as="geometry" />
        </mxCell>
        <mxCell id="R9XasYlwKOsbxFos4bsw-146" value="" style="line;strokeWidth=1;fillColor=none;align=left;verticalAlign=middle;spacingTop=-1;spacingLeft=3;spacingRight=3;rotatable=0;labelPosition=right;points=[];portConstraint=eastwest;" parent="R9XasYlwKOsbxFos4bsw-144" vertex="1">
          <mxGeometry y="26" width="160" height="8" as="geometry" />
        </mxCell>
        <mxCell id="R9XasYlwKOsbxFos4bsw-148" value="&lt;&lt;abstract&gt;&gt;&#xa;Filter" style="swimlane;fontStyle=3;align=center;verticalAlign=top;childLayout=stackLayout;horizontal=1;startSize=36;horizontalStack=0;resizeParent=1;resizeParentMax=0;resizeLast=0;collapsible=1;marginBottom=0;" parent="1" vertex="1">
          <mxGeometry x="535" y="1570" width="160" height="44" as="geometry" />
        </mxCell>
        <mxCell id="R9XasYlwKOsbxFos4bsw-150" value="" style="line;strokeWidth=1;fillColor=none;align=left;verticalAlign=middle;spacingTop=-1;spacingLeft=3;spacingRight=3;rotatable=0;labelPosition=right;points=[];portConstraint=eastwest;" parent="R9XasYlwKOsbxFos4bsw-148" vertex="1">
          <mxGeometry y="36" width="160" height="8" as="geometry" />
        </mxCell>
        <mxCell id="R9XasYlwKOsbxFos4bsw-152" value="GreaterOrEqualFilter" style="swimlane;fontStyle=1;align=center;verticalAlign=top;childLayout=stackLayout;horizontal=1;startSize=26;horizontalStack=0;resizeParent=1;resizeParentMax=0;resizeLast=0;collapsible=1;marginBottom=0;" parent="1" vertex="1">
          <mxGeometry x="710" y="1680" width="160" height="34" as="geometry" />
        </mxCell>
        <mxCell id="R9XasYlwKOsbxFos4bsw-154" value="" style="line;strokeWidth=1;fillColor=none;align=left;verticalAlign=middle;spacingTop=-1;spacingLeft=3;spacingRight=3;rotatable=0;labelPosition=right;points=[];portConstraint=eastwest;" parent="R9XasYlwKOsbxFos4bsw-152" vertex="1">
          <mxGeometry y="26" width="160" height="8" as="geometry" />
        </mxCell>
        <mxCell id="R9XasYlwKOsbxFos4bsw-156" value="GreaterThanFilter" style="swimlane;fontStyle=1;align=center;verticalAlign=top;childLayout=stackLayout;horizontal=1;startSize=26;horizontalStack=0;resizeParent=1;resizeParentMax=0;resizeLast=0;collapsible=1;marginBottom=0;" parent="1" vertex="1">
          <mxGeometry x="540" y="1680" width="160" height="34" as="geometry" />
        </mxCell>
        <mxCell id="R9XasYlwKOsbxFos4bsw-158" value="" style="line;strokeWidth=1;fillColor=none;align=left;verticalAlign=middle;spacingTop=-1;spacingLeft=3;spacingRight=3;rotatable=0;labelPosition=right;points=[];portConstraint=eastwest;" parent="R9XasYlwKOsbxFos4bsw-156" vertex="1">
          <mxGeometry y="26" width="160" height="8" as="geometry" />
        </mxCell>
        <mxCell id="R9XasYlwKOsbxFos4bsw-160" value="InFilter" style="swimlane;fontStyle=1;align=center;verticalAlign=top;childLayout=stackLayout;horizontal=1;startSize=26;horizontalStack=0;resizeParent=1;resizeParentMax=0;resizeLast=0;collapsible=1;marginBottom=0;" parent="1" vertex="1">
          <mxGeometry x="537.5" y="1630" width="160" height="34" as="geometry" />
        </mxCell>
        <mxCell id="R9XasYlwKOsbxFos4bsw-162" value="" style="line;strokeWidth=1;fillColor=none;align=left;verticalAlign=middle;spacingTop=-1;spacingLeft=3;spacingRight=3;rotatable=0;labelPosition=right;points=[];portConstraint=eastwest;" parent="R9XasYlwKOsbxFos4bsw-160" vertex="1">
          <mxGeometry y="26" width="160" height="8" as="geometry" />
        </mxCell>
        <mxCell id="R9XasYlwKOsbxFos4bsw-164" value="IntersectsGeoFilter" style="swimlane;fontStyle=1;align=center;verticalAlign=top;childLayout=stackLayout;horizontal=1;startSize=26;horizontalStack=0;resizeParent=1;resizeParentMax=0;resizeLast=0;collapsible=1;marginBottom=0;" parent="1" vertex="1">
          <mxGeometry x="367.5" y="1930" width="160" height="34" as="geometry" />
        </mxCell>
        <mxCell id="R9XasYlwKOsbxFos4bsw-166" value="" style="line;strokeWidth=1;fillColor=none;align=left;verticalAlign=middle;spacingTop=-1;spacingLeft=3;spacingRight=3;rotatable=0;labelPosition=right;points=[];portConstraint=eastwest;" parent="R9XasYlwKOsbxFos4bsw-164" vertex="1">
          <mxGeometry y="26" width="160" height="8" as="geometry" />
        </mxCell>
        <mxCell id="R9XasYlwKOsbxFos4bsw-168" value="IsClosedGeoFilter" style="swimlane;fontStyle=1;align=center;verticalAlign=top;childLayout=stackLayout;horizontal=1;startSize=26;horizontalStack=0;resizeParent=1;resizeParentMax=0;resizeLast=0;collapsible=1;marginBottom=0;" parent="1" vertex="1">
          <mxGeometry x="367.5" y="1880" width="160" height="34" as="geometry" />
        </mxCell>
        <mxCell id="R9XasYlwKOsbxFos4bsw-170" value="" style="line;strokeWidth=1;fillColor=none;align=left;verticalAlign=middle;spacingTop=-1;spacingLeft=3;spacingRight=3;rotatable=0;labelPosition=right;points=[];portConstraint=eastwest;" parent="R9XasYlwKOsbxFos4bsw-168" vertex="1">
          <mxGeometry y="26" width="160" height="8" as="geometry" />
        </mxCell>
        <mxCell id="R9XasYlwKOsbxFos4bsw-172" value="IsNullFilter" style="swimlane;fontStyle=1;align=center;verticalAlign=top;childLayout=stackLayout;horizontal=1;startSize=26;horizontalStack=0;resizeParent=1;resizeParentMax=0;resizeLast=0;collapsible=1;marginBottom=0;" parent="1" vertex="1">
          <mxGeometry x="367.5" y="1720" width="160" height="34" as="geometry" />
        </mxCell>
        <mxCell id="R9XasYlwKOsbxFos4bsw-174" value="" style="line;strokeWidth=1;fillColor=none;align=left;verticalAlign=middle;spacingTop=-1;spacingLeft=3;spacingRight=3;rotatable=0;labelPosition=right;points=[];portConstraint=eastwest;" parent="R9XasYlwKOsbxFos4bsw-172" vertex="1">
          <mxGeometry y="26" width="160" height="8" as="geometry" />
        </mxCell>
        <mxCell id="R9XasYlwKOsbxFos4bsw-176" value="IsSimpleGeoFilter" style="swimlane;fontStyle=1;align=center;verticalAlign=top;childLayout=stackLayout;horizontal=1;startSize=26;horizontalStack=0;resizeParent=1;resizeParentMax=0;resizeLast=0;collapsible=1;marginBottom=0;" parent="1" vertex="1">
          <mxGeometry x="540" y="1880" width="160" height="34" as="geometry" />
        </mxCell>
        <mxCell id="R9XasYlwKOsbxFos4bsw-178" value="" style="line;strokeWidth=1;fillColor=none;align=left;verticalAlign=middle;spacingTop=-1;spacingLeft=3;spacingRight=3;rotatable=0;labelPosition=right;points=[];portConstraint=eastwest;" parent="R9XasYlwKOsbxFos4bsw-176" vertex="1">
          <mxGeometry y="26" width="160" height="8" as="geometry" />
        </mxCell>
        <mxCell id="R9XasYlwKOsbxFos4bsw-180" value="IsValidGeoFilter" style="swimlane;fontStyle=1;align=center;verticalAlign=top;childLayout=stackLayout;horizontal=1;startSize=26;horizontalStack=0;resizeParent=1;resizeParentMax=0;resizeLast=0;collapsible=1;marginBottom=0;" parent="1" vertex="1">
          <mxGeometry x="710" y="1832" width="160" height="34" as="geometry" />
        </mxCell>
        <mxCell id="R9XasYlwKOsbxFos4bsw-182" value="" style="line;strokeWidth=1;fillColor=none;align=left;verticalAlign=middle;spacingTop=-1;spacingLeft=3;spacingRight=3;rotatable=0;labelPosition=right;points=[];portConstraint=eastwest;" parent="R9XasYlwKOsbxFos4bsw-180" vertex="1">
          <mxGeometry y="26" width="160" height="8" as="geometry" />
        </mxCell>
        <mxCell id="R9XasYlwKOsbxFos4bsw-184" value="LowerOrEqualFilter" style="swimlane;fontStyle=1;align=center;verticalAlign=top;childLayout=stackLayout;horizontal=1;startSize=26;horizontalStack=0;resizeParent=1;resizeParentMax=0;resizeLast=0;collapsible=1;marginBottom=0;" parent="1" vertex="1">
          <mxGeometry x="710" y="1720" width="160" height="34" as="geometry" />
        </mxCell>
        <mxCell id="R9XasYlwKOsbxFos4bsw-186" value="" style="line;strokeWidth=1;fillColor=none;align=left;verticalAlign=middle;spacingTop=-1;spacingLeft=3;spacingRight=3;rotatable=0;labelPosition=right;points=[];portConstraint=eastwest;" parent="R9XasYlwKOsbxFos4bsw-184" vertex="1">
          <mxGeometry y="26" width="160" height="8" as="geometry" />
        </mxCell>
        <mxCell id="R9XasYlwKOsbxFos4bsw-188" value="LowerThanFilter" style="swimlane;fontStyle=1;align=center;verticalAlign=top;childLayout=stackLayout;horizontal=1;startSize=26;horizontalStack=0;resizeParent=1;resizeParentMax=0;resizeLast=0;collapsible=1;marginBottom=0;" parent="1" vertex="1">
          <mxGeometry x="540" y="1720" width="160" height="34" as="geometry" />
        </mxCell>
        <mxCell id="R9XasYlwKOsbxFos4bsw-190" value="" style="line;strokeWidth=1;fillColor=none;align=left;verticalAlign=middle;spacingTop=-1;spacingLeft=3;spacingRight=3;rotatable=0;labelPosition=right;points=[];portConstraint=eastwest;" parent="R9XasYlwKOsbxFos4bsw-188" vertex="1">
          <mxGeometry y="26" width="160" height="8" as="geometry" />
        </mxCell>
        <mxCell id="R9XasYlwKOsbxFos4bsw-192" value="OverlapsGeoFilter" style="swimlane;fontStyle=1;align=center;verticalAlign=top;childLayout=stackLayout;horizontal=1;startSize=26;horizontalStack=0;resizeParent=1;resizeParentMax=0;resizeLast=0;collapsible=1;marginBottom=0;" parent="1" vertex="1">
          <mxGeometry x="540" y="1974" width="160" height="34" as="geometry" />
        </mxCell>
        <mxCell id="R9XasYlwKOsbxFos4bsw-194" value="" style="line;strokeWidth=1;fillColor=none;align=left;verticalAlign=middle;spacingTop=-1;spacingLeft=3;spacingRight=3;rotatable=0;labelPosition=right;points=[];portConstraint=eastwest;" parent="R9XasYlwKOsbxFos4bsw-192" vertex="1">
          <mxGeometry y="26" width="160" height="8" as="geometry" />
        </mxCell>
        <mxCell id="R9XasYlwKOsbxFos4bsw-196" value="RadiusFilter" style="swimlane;fontStyle=1;align=center;verticalAlign=top;childLayout=stackLayout;horizontal=1;startSize=26;horizontalStack=0;resizeParent=1;resizeParentMax=0;resizeLast=0;collapsible=1;marginBottom=0;" parent="1" vertex="1">
          <mxGeometry x="537.5" y="1832" width="160" height="34" as="geometry" />
        </mxCell>
        <mxCell id="R9XasYlwKOsbxFos4bsw-198" value="" style="line;strokeWidth=1;fillColor=none;align=left;verticalAlign=middle;spacingTop=-1;spacingLeft=3;spacingRight=3;rotatable=0;labelPosition=right;points=[];portConstraint=eastwest;" parent="R9XasYlwKOsbxFos4bsw-196" vertex="1">
          <mxGeometry y="26" width="160" height="8" as="geometry" />
        </mxCell>
        <mxCell id="R9XasYlwKOsbxFos4bsw-200" value="StartsWithFilter" style="swimlane;fontStyle=1;align=center;verticalAlign=top;childLayout=stackLayout;horizontal=1;startSize=26;horizontalStack=0;resizeParent=1;resizeParentMax=0;resizeLast=0;collapsible=1;marginBottom=0;" parent="1" vertex="1">
          <mxGeometry x="540" y="1760" width="160" height="34" as="geometry" />
        </mxCell>
        <mxCell id="R9XasYlwKOsbxFos4bsw-202" value="" style="line;strokeWidth=1;fillColor=none;align=left;verticalAlign=middle;spacingTop=-1;spacingLeft=3;spacingRight=3;rotatable=0;labelPosition=right;points=[];portConstraint=eastwest;" parent="R9XasYlwKOsbxFos4bsw-200" vertex="1">
          <mxGeometry y="26" width="160" height="8" as="geometry" />
        </mxCell>
        <mxCell id="R9XasYlwKOsbxFos4bsw-204" value="TouchesGeoFilter" style="swimlane;fontStyle=1;align=center;verticalAlign=top;childLayout=stackLayout;horizontal=1;startSize=26;horizontalStack=0;resizeParent=1;resizeParentMax=0;resizeLast=0;collapsible=1;marginBottom=0;" parent="1" vertex="1">
          <mxGeometry x="367.5" y="2020" width="160" height="34" as="geometry" />
        </mxCell>
        <mxCell id="R9XasYlwKOsbxFos4bsw-206" value="" style="line;strokeWidth=1;fillColor=none;align=left;verticalAlign=middle;spacingTop=-1;spacingLeft=3;spacingRight=3;rotatable=0;labelPosition=right;points=[];portConstraint=eastwest;" parent="R9XasYlwKOsbxFos4bsw-204" vertex="1">
          <mxGeometry y="26" width="160" height="8" as="geometry" />
        </mxCell>
        <mxCell id="R9XasYlwKOsbxFos4bsw-208" value="WithinGeoFilter" style="swimlane;fontStyle=1;align=center;verticalAlign=top;childLayout=stackLayout;horizontal=1;startSize=26;horizontalStack=0;resizeParent=1;resizeParentMax=0;resizeLast=0;collapsible=1;marginBottom=0;" parent="1" vertex="1">
          <mxGeometry x="710" y="1974" width="160" height="34" as="geometry" />
        </mxCell>
        <mxCell id="R9XasYlwKOsbxFos4bsw-210" value="" style="line;strokeWidth=1;fillColor=none;align=left;verticalAlign=middle;spacingTop=-1;spacingLeft=3;spacingRight=3;rotatable=0;labelPosition=right;points=[];portConstraint=eastwest;" parent="R9XasYlwKOsbxFos4bsw-208" vertex="1">
          <mxGeometry y="26" width="160" height="8" as="geometry" />
        </mxCell>
      </root>
    </mxGraphModel>
  </diagram>
  <diagram id="F-JoS_owrptz3SV7i5H3" name="Deploymentdiagram">
    <mxGraphModel dx="1562" dy="916" grid="1" gridSize="10" guides="1" tooltips="1" connect="1" arrows="1" fold="1" page="1" pageScale="1" pageWidth="827" pageHeight="1169" math="0" shadow="0">
      <root>
        <mxCell id="0" />
        <mxCell id="1" parent="0" />
        <mxCell id="up8Oj0CSCN1nlbN90D95-4" value="Payara WebServer" style="verticalAlign=top;align=left;spacingTop=8;spacingLeft=2;spacingRight=12;shape=cube;size=10;direction=south;fontStyle=4;html=1;whiteSpace=wrap;" vertex="1" parent="1">
          <mxGeometry x="260" y="40" width="430" height="330" as="geometry" />
        </mxCell>
        <mxCell id="up8Oj0CSCN1nlbN90D95-3" value="&amp;lt;&amp;lt;REST Service&amp;gt;&amp;gt;&lt;div&gt;SmartData&lt;/div&gt;" style="whiteSpace=wrap;html=1;aspect=fixed;" vertex="1" parent="1">
          <mxGeometry x="280" y="80" width="110" height="110" as="geometry" />
        </mxCell>
        <mxCell id="up8Oj0CSCN1nlbN90D95-5" value="&amp;lt;&amp;lt;device&amp;gt;&amp;gt;&lt;div&gt;Data Requestor&lt;/div&gt;" style="verticalAlign=top;align=left;spacingTop=8;spacingLeft=2;spacingRight=12;shape=cube;size=10;direction=south;fontStyle=4;html=1;whiteSpace=wrap;" vertex="1" parent="1">
          <mxGeometry x="40" y="40" width="180" height="120" as="geometry" />
        </mxCell>
        <mxCell id="up8Oj0CSCN1nlbN90D95-6" value="&lt;div style=&quot;box-sizing:border-box;width:100%;background:#e4e4e4;padding:2px;&quot;&gt;SmartData_configuration.properties&lt;/div&gt;&lt;table style=&quot;width:100%;font-size:1em;&quot; cellpadding=&quot;2&quot; cellspacing=&quot;0&quot;&gt;&lt;tbody&gt;&lt;tr&gt;&lt;td&gt;postgres.jndi&lt;br&gt;&lt;/td&gt;&lt;td&gt;jdbc/SmartData&lt;/td&gt;&lt;/tr&gt;&lt;tr&gt;&lt;td&gt;debugmod&lt;span style=&quot;white-space: pre;&quot;&gt;&#x9;&lt;/span&gt;&lt;/td&gt;&lt;td&gt;true&lt;/td&gt;&lt;/tr&gt;&lt;tr&gt;&lt;td&gt;&lt;/td&gt;&lt;td&gt;&lt;br&gt;&lt;/td&gt;&lt;/tr&gt;&lt;/tbody&gt;&lt;/table&gt;" style="verticalAlign=top;align=left;overflow=fill;html=1;whiteSpace=wrap;" vertex="1" parent="1">
          <mxGeometry x="450" y="90" width="210" height="90" as="geometry" />
        </mxCell>
        <mxCell id="up8Oj0CSCN1nlbN90D95-7" value="Database Server&lt;div&gt;{vendor: postgres}&lt;/div&gt;" style="verticalAlign=top;align=left;spacingTop=8;spacingLeft=2;spacingRight=12;shape=cube;size=10;direction=south;fontStyle=4;html=1;whiteSpace=wrap;" vertex="1" parent="1">
          <mxGeometry x="40" y="250" width="180" height="120" as="geometry" />
        </mxCell>
        <mxCell id="up8Oj0CSCN1nlbN90D95-10" value="&lt;div&gt;&amp;lt;&amp;lt;JDBC Resouce&amp;gt;&amp;gt;&lt;/div&gt;jdbc/SmartData" style="html=1;whiteSpace=wrap;" vertex="1" parent="1">
          <mxGeometry x="347.5" y="240" width="165" height="50" as="geometry" />
        </mxCell>
        <mxCell id="up8Oj0CSCN1nlbN90D95-11" value="&amp;lt;&amp;lt;Connection Pool&amp;gt;&amp;gt;&lt;div&gt;SmartData&lt;/div&gt;" style="html=1;whiteSpace=wrap;" vertex="1" parent="1">
          <mxGeometry x="347.5" y="310" width="165" height="50" as="geometry" />
        </mxCell>
        <mxCell id="up8Oj0CSCN1nlbN90D95-12" value="" style="endArrow=none;html=1;rounded=0;exitX=0;exitY=0;exitDx=55;exitDy=0;exitPerimeter=0;entryX=0;entryY=0.5;entryDx=0;entryDy=0;" edge="1" parent="1" source="up8Oj0CSCN1nlbN90D95-7" target="up8Oj0CSCN1nlbN90D95-11">
          <mxGeometry width="50" height="50" relative="1" as="geometry">
            <mxPoint x="390" y="290" as="sourcePoint" />
            <mxPoint x="440" y="240" as="targetPoint" />
          </mxGeometry>
        </mxCell>
        <mxCell id="up8Oj0CSCN1nlbN90D95-13" value="" style="endArrow=none;html=1;rounded=0;exitX=0.5;exitY=0;exitDx=0;exitDy=0;entryX=0.5;entryY=1;entryDx=0;entryDy=0;" edge="1" parent="1" source="up8Oj0CSCN1nlbN90D95-11" target="up8Oj0CSCN1nlbN90D95-10">
          <mxGeometry width="50" height="50" relative="1" as="geometry">
            <mxPoint x="390" y="290" as="sourcePoint" />
            <mxPoint x="440" y="240" as="targetPoint" />
          </mxGeometry>
        </mxCell>
        <mxCell id="up8Oj0CSCN1nlbN90D95-14" value="" style="endArrow=none;html=1;rounded=0;exitX=0.445;exitY=0.982;exitDx=0;exitDy=0;exitPerimeter=0;entryX=0.5;entryY=0;entryDx=0;entryDy=0;" edge="1" parent="1" source="up8Oj0CSCN1nlbN90D95-3" target="up8Oj0CSCN1nlbN90D95-10">
          <mxGeometry width="50" height="50" relative="1" as="geometry">
            <mxPoint x="390" y="290" as="sourcePoint" />
            <mxPoint x="440" y="240" as="targetPoint" />
          </mxGeometry>
        </mxCell>
        <mxCell id="up8Oj0CSCN1nlbN90D95-15" value="Use" style="endArrow=open;endSize=12;dashed=1;html=1;rounded=0;exitX=1;exitY=0.5;exitDx=0;exitDy=0;entryX=0;entryY=0.5;entryDx=0;entryDy=0;" edge="1" parent="1" source="up8Oj0CSCN1nlbN90D95-3" target="up8Oj0CSCN1nlbN90D95-6">
          <mxGeometry width="160" relative="1" as="geometry">
            <mxPoint x="330" y="270" as="sourcePoint" />
            <mxPoint x="490" y="270" as="targetPoint" />
          </mxGeometry>
        </mxCell>
        <mxCell id="up8Oj0CSCN1nlbN90D95-19" value="" style="endArrow=none;html=1;rounded=0;exitX=0;exitY=0;exitDx=55;exitDy=0;exitPerimeter=0;entryX=0;entryY=0.5;entryDx=0;entryDy=0;" edge="1" parent="1" source="up8Oj0CSCN1nlbN90D95-5" target="up8Oj0CSCN1nlbN90D95-3">
          <mxGeometry width="50" height="50" relative="1" as="geometry">
            <mxPoint x="390" y="290" as="sourcePoint" />
            <mxPoint x="440" y="240" as="targetPoint" />
          </mxGeometry>
        </mxCell>
      </root>
    </mxGraphModel>
  </diagram>
</mxfile>
